<svg width="75" height="37" viewBox="0 0 75 37" fill="none" xmlns="http://www.w3.org/2000/svg">
<path fill-rule="evenodd" clip-rule="evenodd" d="M56.0766 27.3355C51.0902 27.3355 47.038 23.3823 47.038 18.5027C47.038 13.619 51.0902 9.66249 56.0766 9.66249C61.0694 9.66249 65.1151 13.619 65.1151 18.5027C65.1151 23.3823 61.0694 27.3355 56.0766 27.3355ZM18.9236 27.3355C15.7479 27.3355 12.9544 25.735 11.3398 23.3138C10.4198 21.9271 9.88622 20.2739 9.88622 18.5027C9.88622 16.7249 10.4198 15.074 11.3398 13.6894C12.9544 11.2646 15.7479 9.66249 18.9236 9.66249C22.0992 9.66249 24.2617 11.3785 26.3186 13.6862L14.0035 13.6894V23.3138H26.5052C24.8942 25.735 22.0992 27.3355 18.9236 27.3355ZM56.0766 0C47.3329 0 39.9714 5.8035 37.804 13.6894H26.6452L35.1045 8.90852C31.7878 3.56955 25.7826 0 18.9236 0C8.47333 0 0 8.28326 0 18.5027C0 28.7176 8.47333 37 18.9236 37C28.1437 37 35.8185 30.5551 37.5012 22.0213C39.1848 30.5551 46.8589 37 56.0766 37C66.528 37 75 28.7176 75 18.5027C75 8.28326 66.528 0 56.0766 0Z" fill="#FF6A13"/>
</svg>
